# xmcd CD database file
#
# Track frame offsets:
#	150
#	20680
#	42904
#	63282
#	84558
#	109367
#	137210
#	158855
#	201812
#	221176
#	243474
#	265847
#
# Disc length: 4264 seconds
#
# Revision: 2
# Processed by: cddbd v1.5.2PL0 Copyright (c) Steve Scherf et al.
# Submitted via: CDex 1.51
#
DISCID=b210a60c
DTITLE=Carla Olson - The Ring Of Truth
DYEAR=2001
DGENRE=Blues
TTITLE0=Loserville
TTITLE1=Never Fade Away
TTITLE2=The Low Way
TTITLE3=The Ring Of Truth
TTITLE4=Locked Up Tight
TTITLE5=Sweeter
TTITLE6=Can You Please Crawl Out Your Window?
TTITLE7=Great Black Hole
TTITLE8=Wave Of The Hand
TTITLE9=Friends In Baltimore
TTITLE10=After Youve Gone (Empty Blues)
TTITLE11=Winter
EXTD=YEAR: 2001
EXTT0=
EXTT1=
EXTT2=
EXTT3=
EXTT4=
EXTT5=
EXTT6=
EXTT7=
EXTT8=
EXTT9=
EXTT10=
EXTT11=
PLAYORDER=
